<svg width="1600" height="900" viewBox="0 0 1600 900" fill="none" xmlns="http://www.w3.org/2000/svg">
  <defs>
    <linearGradient id="gradient-services" x1="0.2" y1="0" x2="0.9" y2="1">
      <stop offset="0%" stop-color="#0A1128"/>
      <stop offset="55%" stop-color="#2E38FF"/>
      <stop offset="100%" stop-color="#7B2BFF"/>
    </linearGradient>
    <radialGradient id="services-glow" cx="0.5" cy="0.5" r="0.7">
      <stop offset="0%" stop-color="rgba(124, 164, 255, 0.7)"/>
      <stop offset="100%" stop-color="rgba(10, 17, 40, 0)"/>
    </radialGradient>
  </defs>
  <rect width="1600" height="900" fill="url(#gradient-services)"/>
  <circle cx="1150" cy="260" r="320" fill="url(#services-glow)"/>
  <circle cx="280" cy="620" r="260" fill="url(#services-glow)" opacity="0.6"/>
  <g fill="none" stroke="rgba(255,255,255,0.28)" stroke-width="2">
    <circle cx="820" cy="450" r="360"/>
    <circle cx="820" cy="450" r="280"/>
    <circle cx="820" cy="450" r="200"/>
  </g>
  <g stroke="rgba(250,163,17,0.55)" stroke-width="4" stroke-linecap="round">
    <path d="M520 430L660 370"/>
    <path d="M660 370L780 420"/>
    <path d="M780 420L920 360"/>
    <path d="M920 360L1080 430"/>
  </g>
  <g fill="rgba(255,255,255,0.9)">
    <rect x="500" y="400" width="52" height="52" rx="12"/>
    <rect x="640" y="340" width="52" height="52" rx="12"/>
    <rect x="760" y="390" width="52" height="52" rx="12"/>
    <rect x="900" y="330" width="52" height="52" rx="12"/>
    <rect x="1060" y="400" width="52" height="52" rx="12"/>
  </g>
  <text x="190" y="210" fill="#FCA311" font-family="Inter, Arial, sans-serif" font-size="24" font-weight="600" letter-spacing="0.16em" text-transform="uppercase">
    EXPERTISE SERVICES
  </text>
  <text x="190" y="266" fill="#FFFFFF" font-family="Figtree, Arial, sans-serif" font-size="54" font-weight="700">
    Pilotez vos prestations en temps reel
  </text>
  <text x="190" y="320" fill="rgba(255,255,255,0.82)" font-family="Inter, Arial, sans-serif" font-size="22">
    Workflow devis, signature et reporting sous un meme portail client.
  </text>
</svg>
